<?xml version="1.0" standalone="no"?>
<!DOCTYPE svg PUBLIC "-//W3C//DTD SVG 20010904//EN"
 "http://www.w3.org/TR/2001/REC-SVG-20010904/DTD/svg10.dtd">
<svg version="1.0" xmlns="http://www.w3.org/2000/svg"
 width="1638.000000pt" height="642.000000pt" viewBox="0 0 1638.000000 642.000000"
 preserveAspectRatio="xMidYMid meet">

<g transform="translate(0.000000,642.000000) scale(0.100000,-0.100000)"
fill="#ffffff" stroke="none">
<path d="M7680 6405 c-398 -64 -1176 -373 -2080 -825 -408 -204 -728 -404
-839 -526 -74 -81 -85 -125 -116 -467 -19 -205 -18 -206 59 -255 24 -15 77
-68 118 -117 98 -118 259 -271 385 -367 55 -43 320 -222 589 -399 596 -391
744 -506 744 -577 0 -33 -20 -54 -110 -112 -82 -53 -127 -74 -685 -325 -508
-229 -617 -282 -750 -362 -214 -130 -351 -252 -541 -480 -251 -302 -365 -409
-506 -472 -175 -79 -329 -73 -427 15 -107 97 -137 288 -82 519 11 44 69 229
130 410 105 313 122 375 103 375 -24 0 -67 -80 -165 -302 -161 -363 -225 -678
-183 -898 28 -150 132 -329 235 -405 146 -106 310 -120 478 -40 89 41 220 165
433 405 263 297 453 460 700 599 67 38 371 174 375 168 1 -1 -6 -49 -16 -107
-69 -402 -36 -672 116 -940 216 -382 532 -560 993 -560 307 0 591 72 982 250
329 149 674 377 923 610 133 124 210 251 254 419 22 81 26 119 26 246 1 220
-16 278 -197 646 -53 108 -96 198 -96 201 0 3 21 1 48 -3 123 -20 171 -4 137
48 -29 44 -377 393 -392 393 -7 0 -18 -10 -23 -22 -14 -33 -60 -270 -60 -309
0 -21 23 -82 61 -159 33 -68 80 -183 105 -254 25 -71 99 -242 165 -380 78
-164 119 -262 119 -283 0 -29 -13 -48 -87 -125 -119 -124 -235 -219 -405 -332
-397 -264 -811 -430 -1261 -506 -452 -76 -813 4 -1069 239 -116 106 -215 273
-259 436 -30 109 -32 330 -5 422 31 105 60 129 258 218 203 91 415 199 508
259 122 80 206 189 251 328 34 103 35 290 2 393 -33 102 -87 187 -187 292
-117 123 -170 159 -976 656 -143 89 -288 198 -360 271 l-54 56 91 0 c108 0
123 4 123 36 0 34 -63 73 -304 186 -116 54 -215 103 -220 108 -13 13 9 30 224
174 471 318 1263 702 2071 1004 440 165 467 174 584 178 131 6 198 -15 203
-62 2 -25 -13 -51 -91 -155 -52 -68 -119 -152 -150 -185 -187 -211 -311 -410
-357 -576 -36 -132 -23 -155 28 -50 48 97 141 223 304 411 299 344 381 471
429 660 35 140 19 248 -44 295 -36 26 -137 31 -257 11z"/>
<path d="M5296 5915 c-829 -305 -836 -308 -872 -376 -7 -15 -17 -46 -20 -70
-6 -34 -4 -41 7 -37 8 3 300 116 649 251 349 135 702 270 784 301 183 70 199
78 229 118 20 27 47 88 47 104 0 11 -91 -21 -824 -291z"/>
<path d="M8680 6043 c-26 -10 -61 -47 -87 -91 -23 -39 -133 -424 -133 -466 0
-36 -17 -3 -50 99 -49 152 -91 224 -176 305 -106 100 -132 96 -203 -31 -44
-79 -41 -96 25 -159 49 -47 58 -51 87 -45 92 19 86 24 148 -125 31 -74 69
-172 85 -217 l28 -82 -22 -28 c-41 -51 -71 -120 -82 -184 -18 -111 -17 -112
43 -52 33 32 63 53 76 53 24 0 71 -27 71 -41 0 -4 -36 -27 -80 -50 -94 -49
-134 -92 -157 -168 -20 -69 -15 -126 32 -371 55 -287 83 -465 89 -580 12 -193
18 -250 26 -245 18 11 33 159 33 320 0 207 -19 347 -79 584 -24 96 -44 185
-44 198 0 31 23 44 195 104 91 32 161 63 179 78 58 52 72 134 34 191 -13 19
-71 70 -130 114 -63 48 -107 88 -107 99 -1 29 77 356 110 458 48 153 81 171
167 94 l50 -45 21 43 c36 75 20 157 -42 215 -24 23 -80 36 -107 25z"/>
<path d="M9150 5793 c-59 -182 -60 -204 -16 -364 62 -232 102 -454 125 -704 6
-60 27 -519 46 -1020 57 -1494 58 -1510 91 -1675 21 -101 69 -245 101 -300 70
-119 203 -208 350 -232 214 -36 515 87 800 326 49 40 99 85 112 100 14 14 28
26 32 26 3 0 10 -30 14 -67 15 -144 62 -242 154 -320 67 -58 79 -95 56 -179
-23 -85 -25 -167 -5 -171 10 -2 30 31 64 105 27 59 52 110 55 114 3 3 40 0 81
-8 218 -42 568 -57 801 -34 400 40 802 148 1327 359 84 33 155 61 157 61 6 0
-17 -56 -88 -220 -73 -167 -132 -351 -157 -491 -12 -66 -28 -124 -38 -139 -13
-17 -173 -98 -527 -266 -280 -133 -511 -247 -513 -254 -3 -8 2 -10 14 -7 11 3
117 27 236 52 388 82 552 141 741 268 32 21 59 37 60 35 1 -1 15 -41 30 -88
42 -123 109 -257 159 -314 91 -106 227 -164 356 -153 88 7 168 36 265 95 90
54 243 205 628 622 130 140 281 298 335 350 230 222 480 382 689 442 63 18
106 22 200 23 109 0 125 -2 176 -26 72 -34 131 -87 185 -168 l43 -65 25 55
c61 130 74 327 27 417 -30 58 -99 123 -174 163 -82 43 -160 48 -325 20 -264
-45 -482 -148 -732 -347 -113 -90 -358 -336 -677 -679 -289 -312 -373 -394
-463 -455 -128 -87 -284 -139 -378 -126 -136 18 -251 140 -252 266 0 55 0 54
93 150 63 64 85 97 130 189 l53 110 70 -52 c76 -57 144 -94 191 -103 60 -12
116 66 129 179 17 147 -71 297 -176 297 -30 0 -45 -11 -130 -98 -71 -73 -108
-122 -145 -190 -52 -95 -190 -266 -207 -256 -13 8 -6 38 64 269 32 110 79 243
103 295 24 52 48 121 54 153 6 32 20 71 31 87 12 16 69 58 128 94 271 163 380
293 443 531 31 114 38 378 14 496 -46 228 -164 382 -280 364 -124 -19 -241
-159 -338 -406 -84 -212 -113 -350 -123 -589 -4 -80 -11 -153 -16 -163 -5 -10
-32 -28 -61 -41 -93 -41 -478 -188 -482 -184 -2 2 32 53 77 113 154 211 215
345 225 494 12 166 -34 269 -186 422 -115 115 -202 174 -318 214 -312 109
-573 11 -887 -332 -137 -151 -219 -276 -456 -698 -89 -159 -166 -294 -170
-299 -11 -11 -107 45 -153 89 -70 68 -82 104 -80 243 2 98 0 122 -12 122 -7 0
-92 -52 -187 -115 -336 -224 -521 -295 -772 -295 -118 0 -183 16 -241 59 -73
54 -143 200 -165 346 -5 39 -21 387 -35 775 -56 1584 -63 1717 -91 1970 -46
416 -150 810 -224 850 -18 10 -22 1 -60 -117z m4761 -2874 c64 -45 130 -183
144 -302 12 -97 -7 -125 -134 -201 -156 -93 -359 -206 -370 -206 -17 0 -23 40
-16 113 18 205 73 359 187 524 71 102 120 121 189 72z m-1419 -84 c132 -33
283 -122 408 -242 94 -89 135 -151 126 -188 -9 -37 -132 -162 -227 -230 -107
-77 -335 -203 -472 -261 -263 -111 -400 -144 -630 -151 -132 -4 -191 -2 -276
12 -60 9 -114 21 -120 25 -9 5 17 58 84 176 174 302 311 492 455 627 236 223
420 288 652 232z m1392 -1455 c24 -29 42 -87 35 -108 -5 -13 -179 87 -179 103
0 17 39 34 82 34 29 1 42 -5 62 -29z"/>
<path d="M10985 4914 c-275 -102 -626 -230 -779 -285 -153 -55 -291 -106 -305
-114 -53 -28 -101 -95 -116 -164 -6 -30 -5 -33 11 -29 45 12 1611 621 1631
634 13 8 30 26 39 40 17 26 36 104 25 104 -3 -1 -231 -84 -506 -186z"/>
<path d="M6258 4878 c-31 -47 -98 -187 -118 -249 -52 -152 -73 -348 -49 -444
12 -49 69 -110 113 -121 73 -18 155 104 181 271 l6 40 -36 -42 c-20 -23 -52
-52 -71 -64 -31 -19 -39 -20 -60 -9 -13 7 -33 33 -45 58 -19 38 -21 55 -16
126 6 77 51 261 96 390 23 65 22 80 -1 44z"/>
<path d="M3541 4466 c-29 -16 -85 -103 -110 -171 -10 -27 -38 -130 -62 -228
l-43 -178 -33 118 c-18 65 -49 150 -68 189 -39 81 -115 162 -176 189 -37 17
-44 18 -67 4 -38 -21 -101 -126 -101 -168 -1 -28 7 -42 47 -78 53 -50 83 -60
118 -44 64 29 80 5 179 -269 37 -102 71 -191 75 -199 17 -31 58 76 103 271 70
299 120 408 175 379 21 -11 68 -63 74 -82 2 -7 12 -9 24 -5 15 4 26 24 39 65
24 80 15 120 -39 176 -34 36 -49 45 -77 45 -19 -1 -45 -7 -58 -14z"/>
<path d="M13810 4273 c-8 -3 -222 -82 -475 -175 -253 -94 -596 -219 -763 -279
-166 -60 -315 -115 -331 -123 -43 -23 -87 -79 -106 -136 -9 -28 -15 -54 -12
-56 3 -3 234 83 514 191 279 108 632 244 783 301 151 58 286 109 301 115 49
19 91 70 119 144 10 26 3 30 -30 18z"/>
<path d="M11491 3852 c-40 -81 -72 -156 -70 -167 3 -13 67 -63 168 -132 91
-62 167 -113 170 -113 14 2 142 289 139 311 -2 18 -44 53 -158 136 -85 61
-160 112 -165 112 -6 1 -44 -66 -84 -147z"/>
<path d="M7113 3982 c-7 -4 -42 -69 -78 -143 -50 -103 -64 -141 -58 -157 7
-18 316 -242 334 -242 10 0 139 278 139 300 0 11 -12 33 -27 49 -28 29 -276
201 -291 201 -4 0 -12 -4 -19 -8z"/>
<path d="M10814 3831 c-31 -14 -79 -73 -108 -135 -15 -31 -44 -131 -66 -223
-22 -93 -44 -177 -48 -187 -7 -15 -17 6 -46 90 -58 169 -92 232 -159 298 -33
32 -75 65 -94 73 -31 12 -38 12 -58 -1 -28 -18 -105 -144 -105 -170 0 -9 23
-42 51 -72 54 -57 79 -65 133 -44 14 5 33 7 41 3 25 -9 77 -124 140 -310 33
-95 62 -173 66 -173 21 0 55 94 104 290 83 325 101 370 151 370 13 0 44 -18
69 -40 25 -22 50 -40 55 -40 13 0 37 49 45 92 18 94 -94 211 -171 179z"/>
<path d="M2689 3422 c-66 -27 -125 -71 -195 -143 -75 -80 -109 -129 -168 -248
-123 -244 -170 -505 -132 -734 l13 -78 -66 -38 c-36 -21 -111 -65 -166 -96
-195 -113 -339 -222 -858 -652 -306 -253 -332 -273 -429 -317 -147 -68 -308
-82 -416 -36 -103 44 -153 132 -160 282 -9 179 26 334 162 730 132 385 128
447 -11 170 -276 -549 -334 -980 -169 -1254 80 -133 195 -231 310 -264 123
-34 276 -4 426 85 39 24 239 177 445 341 490 391 605 479 722 552 99 62 310
168 335 168 7 0 32 -36 56 -79 115 -207 292 -362 460 -401 97 -23 198 6 266
76 207 213 147 762 -97 877 -105 50 -191 46 -471 -19 -82 -19 -154 -33 -161
-30 -24 9 -55 113 -55 184 1 220 114 414 295 503 113 56 205 52 308 -14 56
-35 57 -34 82 48 29 94 39 190 28 254 -22 115 -64 144 -213 148 -74 2 -105 -1
-141 -15z m241 -1462 c85 -43 117 -105 68 -131 -31 -17 -124 -14 -176 5 -84
30 -196 128 -160 141 62 21 213 13 268 -15z"/>
<path d="M15585 3210 c-280 -105 -634 -234 -785 -287 -260 -93 -277 -100 -320
-143 -31 -31 -51 -62 -63 -99 -9 -30 -16 -56 -13 -58 2 -2 293 108 647 245
354 137 720 278 814 313 188 71 221 94 248 173 15 43 15 46 -1 45 -9 0 -246
-85 -527 -189z"/>
<path d="M4592 3307 c-54 -95 -75 -143 -108 -252 -25 -81 -28 -106 -28 -245
-1 -175 7 -208 59 -240 42 -26 74 -25 116 3 61 41 98 118 114 237 l6 45 -28
-35 c-58 -73 -80 -90 -116 -90 -20 0 -41 7 -50 18 -25 27 -40 107 -34 172 7
67 65 303 97 394 11 33 19 61 17 63 -2 1 -22 -30 -45 -70z"/>
<path d="M912 2793 c-90 -140 -154 -356 -156 -528 -2 -173 37 -245 130 -245
68 0 97 33 143 165 22 61 42 118 46 128 5 12 2 17 -9 17 -9 0 -16 -5 -16 -10
0 -19 -81 -98 -110 -108 -21 -8 -33 -7 -49 4 -82 58 -73 207 34 541 13 43 23
79 21 80 -2 2 -17 -18 -34 -44z"/>
<path d="M7276 2474 c-51 -88 -99 -211 -117 -305 -17 -83 -16 -338 1 -378 16
-41 56 -64 107 -64 47 0 75 19 101 68 29 56 90 235 82 240 -5 3 -28 -21 -52
-52 -47 -62 -79 -80 -121 -69 -33 8 -55 49 -63 118 -5 43 2 85 35 220 23 92
50 195 61 229 10 35 17 65 15 67 -2 2 -24 -31 -49 -74z"/>
<path d="M5069 1436 c-97 -26 -254 -135 -342 -238 -61 -71 -155 -223 -166
-267 -5 -20 -12 -53 -16 -74 l-6 -38 65 -29 c78 -36 142 -38 361 -15 164 17
382 20 422 4 34 -12 73 -48 73 -65 0 -8 -29 -19 -72 -28 -257 -53 -547 -107
-628 -117 -125 -15 -280 -4 -383 27 -14 5 -12 -4 13 -45 38 -62 78 -97 149
-129 96 -44 139 -41 506 32 182 36 347 74 368 83 73 32 118 121 120 233 1 70
-14 109 -55 146 -61 57 -145 73 -283 55 -178 -23 -487 -40 -512 -28 -32 14
-24 52 20 90 67 58 269 208 307 227 56 28 111 26 149 -6 l31 -26 11 29 c45
115 49 151 21 176 -22 20 -86 21 -153 3z"/>
<path d="M10462 1369 c-40 -20 -98 -65 -164 -128 -141 -133 -137 -131 -235
-131 -138 0 -210 -38 -394 -206 -47 -44 -145 -143 -217 -221 -145 -156 -239
-236 -369 -315 -93 -57 -91 -68 8 -43 114 30 154 58 344 244 203 199 263 250
347 292 115 58 207 70 363 47 161 -23 298 24 416 141 54 54 70 78 87 130 12
36 22 87 22 114 0 40 -5 53 -29 78 -41 40 -96 40 -179 -2z m118 -126 c31 -25
31 -27 14 -41 -77 -57 -235 -111 -329 -112 l-39 0 59 60 c111 112 229 149 295
93z"/>
<path d="M11722 1062 c-154 -294 -187 -644 -70 -726 34 -24 91 -20 125 8 43
36 82 116 98 198 7 40 12 74 10 76 -1 2 -17 -15 -35 -38 -34 -43 -76 -70 -109
-70 -27 0 -69 53 -77 97 -10 52 30 272 76 423 21 68 37 126 36 127 -1 2 -26
-41 -54 -95z"/>
<path d="M2881 1057 c-6 -8 -32 -60 -58 -115 l-48 -102 -158 105 c-87 58 -162
105 -167 105 -4 0 -12 -6 -18 -13 -14 -16 -154 -299 -150 -302 2 -1 80 -54
175 -118 l171 -117 25 43 c13 23 41 74 61 114 19 39 39 74 44 77 5 3 72 -40
150 -94 79 -56 152 -100 165 -100 19 0 34 21 90 130 47 88 67 138 65 157 -3
30 -41 61 -212 176 -104 70 -117 75 -135 54z"/>
<path d="M4490 811 c-19 -4 -298 -104 -620 -223 -322 -118 -666 -244 -765
-279 -210 -74 -238 -95 -274 -199 -11 -35 -20 -64 -18 -66 1 -1 88 32 192 72
179 71 1243 480 1368 527 90 34 139 81 161 155 4 12 4 21 -1 21 -4 -1 -24 -4
-43 -8z"/>
</g>
</svg>
