<?xml version="1.0" encoding="UTF-8"?>
<!DOCTYPE svg PUBLIC "-//W3C//DTD SVG 1.1//EN" "http://www.w3.org/Graphics/SVG/1.1/DTD/svg11.dtd">
<!-- Creator: CorelDRAW 2021 (64-Bit) -->
<svg xmlns="http://www.w3.org/2000/svg" xml:space="preserve" width="150mm" height="150mm" version="1.1" style="shape-rendering:geometricPrecision; text-rendering:geometricPrecision; image-rendering:optimizeQuality; fill-rule:evenodd; clip-rule:evenodd"
viewBox="0 0 15000 15000"
 xmlns:xlink="http://www.w3.org/1999/xlink"
 xmlns:xodm="http://www.corel.com/coreldraw/odm/2003">
 <defs>
  <style type="text/css">
   <![CDATA[
    .fil3 {fill:#FEFEFE;fill-rule:nonzero}
    .fil1 {fill:#E5E5E5;fill-rule:nonzero}
    .fil0 {fill:#20B6D5;fill-rule:nonzero}
    .fil2 {fill:#01A0BA;fill-rule:nonzero}
   ]]>
  </style>
 </defs>
 <g id="Layer_x0020_1">
  <metadata id="CorelCorpID_0Corel-Layer"/>
  <path class="fil0" d="M14998.54 7501.47c0,4142.78 -3357.25,7500 -7500.06,7500 -4142.08,0 -7499.94,-3357.22 -7499.94,-7500 0,-4141.74 3357.86,-7500 7499.94,-7500 4142.81,0 7500.06,3358.26 7500.06,7500z"/>
  <path class="fil1" d="M11941.04 1438.22c-9.3,-1.04 -19.64,-1.04 -28.94,-1.04 -1232.09,-898.22 -2748.44,-1430.54 -4388.81,-1435.71 1.03,0 2.06,0 3.1,0 1649.68,0 3176.36,533.36 4414.65,1436.75z"/>
  <path class="fil2" d="M850.15 10923.81c-527.06,-1026.39 -824.23,-2189.22 -824.23,-3422.34 0,-4140.71 3356.84,-7497.93 7497.37,-7500 1640.37,5.17 3156.72,537.49 4388.81,1435.71 -234.64,-10.33 -465.14,-14.47 -689.44,-14.47 -10034,0 -10370.04,9430.82 -10372.51,9501.1z"/>
  <g id="_2047267378624">
   <path class="fil3" d="M2940.15 7503.14c73.6,-86.83 141.6,-180.88 221.92,-258.4 569.53,-547.83 1141.55,-1093.58 1713.14,-1639.34 437.65,-417.59 876.73,-833.11 1314.69,-1250.69 290.86,-275.98 578.93,-557.13 871.66,-832.07 258.2,-240.84 619.97,-239.8 878.38,4.14 442.4,419.64 881.69,843.44 1323.05,1266.19 8.27,8.27 18.61,14.47 40.32,31 3.09,-39.27 6.2,-68.21 6.2,-96.12 0,-364.87 0,-728.71 1.03,-1093.58 0,-206.72 55.82,-270.81 233.6,-270.81 327.66,0 655.33,0 982.99,0 167.45,0 227.4,69.25 227.4,262.55 0,832.06 1.03,1663.1 -1.04,2495.17 0,68.22 18.61,113.7 63.06,156.08 374.17,352.46 748.35,707 1119.43,1063.6 46.5,45.48 81.65,107.5 120.93,162.28 0,38.24 0,77.52 0,116.8 -118.87,167.45 -236.7,335.93 -356.61,502.35 -103.36,142.64 -196.39,156.07 -323.52,35.14 -340.07,-322.49 -677.03,-648.09 -1016.07,-971.61 -297.68,-285.29 -596.4,-568.5 -894.09,-853.78 -306.99,-293.55 -615.01,-586.06 -922,-880.65 -331.8,-316.29 -662.57,-633.61 -992.29,-951.97 -39.28,-37.21 -66.16,-38.24 -106.47,0 -301.81,292.51 -604.88,582.97 -908.15,872.38 -301.72,288.38 -603.74,576.76 -905.57,864.11 -303.47,290.45 -607.05,579.87 -910.62,870.32 -338.73,323.52 -677.55,647.05 -1016.27,970.57 -39.18,37.22 -77.01,76.49 -118.56,110.6 -95.2,77.53 -182.33,71.32 -258.72,-29.97 -132.83,-175.72 -259.03,-357.64 -387.82,-537.49 0,-39.28 0,-78.56 0,-116.8z"/>
   <path class="fil3" d="M8222.13 11653.16c0,-827.94 0,-1649.67 0,-2477.61 -32.05,-2.07 -55.82,-4.14 -79.6,-4.14 -428.95,0 -858.94,1.03 -1288.42,-2.06 -64.29,-1.03 -81.97,19.63 -81.66,93.02 2.49,759.72 1.55,1519.44 1.55,2279.15 0,35.15 0,71.32 0,117.84 -34,0 -59.74,0 -85.48,0 -679.93,0 -1359.64,0 -2039.26,0 -262.02,0 -406.01,-163.32 -406.32,-463.07 -0.62,-999.52 0.31,-1999.04 -1.55,-2997.52 -0.31,-75.45 23.98,-120.94 73.7,-167.44 502.55,-471.34 1002.62,-946.81 1503.93,-1420.21 441.26,-416.55 883.46,-833.1 1325.03,-1249.66 117.83,-110.59 233.59,-223.26 354.53,-338 177.78,168.49 351.43,332.84 525.09,496.15 507.51,478.57 1013.99,957.14 1521.5,1436.74 388.65,366.94 777.3,733.87 1164.91,1103.91 23.78,22.75 42.38,70.29 42.38,105.44 2.07,1024.32 3.1,2048.64 1.03,3072.97 -1.03,247.04 -148.84,418.62 -362.8,419.65 -708.04,3.1 -1417.11,1.04 -2126.19,1.04 -9.3,0 -18.6,-3.11 -42.37,-6.2z"/>
  </g>
 </g>
</svg>
