<?xml version="1.0" encoding="UTF-8"?>
<!DOCTYPE svg PUBLIC "-//W3C//DTD SVG 1.1//EN" "http://www.w3.org/Graphics/SVG/1.1/DTD/svg11.dtd">
<!-- Creator: CorelDRAW 2021 (64-Bit) -->
<svg xmlns="http://www.w3.org/2000/svg" xml:space="preserve" width="150mm" height="150mm" version="1.1" style="shape-rendering:geometricPrecision; text-rendering:geometricPrecision; image-rendering:optimizeQuality; fill-rule:evenodd; clip-rule:evenodd"
viewBox="0 0 15000 15000"
 xmlns:xlink="http://www.w3.org/1999/xlink"
 xmlns:xodm="http://www.corel.com/coreldraw/odm/2003">
 <defs>
  <style type="text/css">
   <![CDATA[
    .fil3 {fill:#FEFEFE;fill-rule:nonzero}
    .fil0 {fill:#EA7F4C;fill-rule:nonzero}
    .fil1 {fill:#E5E5E5;fill-rule:nonzero}
    .fil4 {fill:#D2582A;fill-rule:nonzero}
    .fil2 {fill:#D47145;fill-rule:nonzero}
   ]]>
  </style>
 </defs>
 <g id="Layer_x0020_1">
  <metadata id="CorelCorpID_0Corel-Layer"/>
  <path class="fil0" d="M14998.53 7501.47c0,4142.78 -3358.02,7500 -7500.52,7500 -4141.45,0 -7499.48,-3357.22 -7499.48,-7500 0,-4141.74 3358.03,-7500 7499.48,-7500 4142.5,0 7500.52,3358.26 7500.52,7500z"/>
  <path class="fil1" d="M11951.6 1438.22c-13.43,-1.04 -26.87,-1.04 -41.33,-2.07 -1230.97,-897.19 -2746.16,-1428.48 -4385.38,-1434.68 4.13,0 8.26,0 12.4,0 1649.56,0 3176.11,533.36 4414.31,1436.75z"/>
  <path class="fil2" d="M861.55 10923.81c-527.11,-1026.39 -823.74,-2189.22 -823.74,-3422.34 0,-4137.61 3350.79,-7492.77 7487.08,-7500 1639.22,6.2 3154.41,537.49 4385.38,1434.68 -229.46,-9.3 -455.8,-13.44 -676.98,-13.44 -10032.73,0 -10369.67,9430.82 -10371.74,9501.1z"/>
  <g id="_1303972416752">
   <path class="fil3" d="M8474.88 4167.61c0,1120.13 -907.8,2028.53 -2028.3,2028.53 -1120.37,0 -2028.41,-908.4 -2028.41,-2028.53 0,-1120.38 908.04,-2028.78 2028.41,-2028.78 1120.5,0 2028.3,908.4 2028.3,2028.78z"/>
   <path class="fil3" d="M6392.6 10987.54l2872.24 12.02c214.03,1.04 422.04,-78.67 569.93,-232.49 98.59,-102.35 174.34,-239.54 155.11,-414.16l14.43 -3123.2c0,0 -359.52,-881.95 -1010,-7.34l-33.67 38.84c0,0 128.65,-545.04 -99.8,-706.64 0,0 -453.29,-566.56 -930.64,176.39 0,0 116.63,-791.29 -321.03,-870.4 0,0 -428.05,-204.17 -716.62,385 0,0 42.08,-1382.98 0,-1505.02 0,0 123.84,-991.6 -465.68,-981.38 0,0 -751.49,-135.51 -526.05,1419.53l-11.66 2403.79c0,0 14.91,478.07 -308.65,228.7l-484.32 -854.53c0,0 -384.52,-201.04 -621.99,-37.04 -237.71,164.13 -92.7,484.8 -53.99,587.36 0,0 1042.11,2335.11 1480.98,3180.35 95.22,183.79 284.36,299.52 491.41,300.22z"/>
   <path class="fil4" d="M6383.1 3463.13l0 0c-122.4,0 -355.91,33.19 -549.25,256.47 -251.54,290.73 -325.6,774.69 -226.53,1479.17l-9.86 2047.89 -246.24 -434.66 -42.33 -75.03 -76.95 -40.28c-26.33,-13.71 -265.24,-134.43 -527.36,-134.43 -151.74,0 -285.33,39.2 -397.15,116.15 -180.72,124.81 -272.46,322 -258.27,554.9 9.5,153.43 61.68,287.49 89.94,359.39l7.09 18.04 2.41 6.73 2.88 6.74c3.85,8.41 384.88,881.82 778.18,1744.41 231.82,508.03 422.64,913.36 567.65,1204.76 266.32,536.56 361.19,706.63 580.99,706.63 4.93,0 10.22,-0.38 15.51,-0.38l3379.04 14.14 52.91 0.33 48.09 -17.99c287.37,-103.38 753.9,-416.28 709.41,-936.26l14.43 -3108.7 0 -58.2 -21.65 -53.98c-24.04,-58.92 -248.89,-576.79 -732.25,-576.79 -102.2,0 -203.2,23.93 -301.79,71.67 -34.87,-103.77 -91.38,-200.08 -179.16,-273.42 -75.75,-82.25 -293.38,-285.81 -603.59,-285.81 -78.16,0 -170.74,13.47 -270.54,54.35 -67.33,-248.41 -214.02,-465.32 -494.18,-529.89 -52.9,-19.72 -144.28,-45.81 -262.11,-45.81 -62.53,0 -141.89,7.69 -229.66,35.59 7.22,-515.34 -2.4,-733.81 -14.43,-835.05 18.04,-183.73 42.09,-723.84 -238.07,-1040.66 -128.65,-146.45 -303.96,-225.09 -505.72,-227.25 -16.59,-1.69 -37.03,-2.77 -61.44,-2.77l0 0zm0 293.14c27.17,0 43.77,2.89 43.77,2.89 3.12,0 6.01,0 9.13,0 579.19,0 456.55,981.38 456.55,981.38 42.08,122.04 0,1505.02 0,1505.02 170.73,-347.85 389.57,-419.15 539.87,-419.15 104.6,0 176.75,34.15 176.75,34.15 437.66,79.11 321.03,870.4 321.03,870.4 188.77,-294.22 373.94,-383.2 529.05,-383.2 235.66,0 401.59,206.81 401.59,206.81 228.45,161.6 99.8,706.64 99.8,706.64l33.67 -38.84c216.42,-290.01 399.19,-387.04 549.48,-387.04 300.6,0 460.52,394.38 460.52,394.38l-14.43 3123.2c48.09,444.12 -514.62,647.69 -514.62,647.69l-3394.44 -14.47c-0.72,0.37 -1.8,0.71 -2.52,0.71 -140.8,0 -1658.09,-3479.87 -1658.09,-3479.87 -38.71,-102.56 -183.72,-423.23 53.99,-587.36 68.78,-47.25 149.94,-64.21 230.38,-64.21 197.55,0 391.61,101.25 391.61,101.25l484.32 854.53c67.09,51.46 119.28,71.9 160.52,71.9 157.75,0 148.13,-300.6 148.13,-300.6l11.66 -2403.79c-192.26,-1324.3 324.65,-1422.42 482.28,-1422.42z"/>
   <path class="fil3" d="M9231.18 11777.78l-2704.16 -0.71c-154.5,0 -281.11,-126.67 -281.11,-281.53l0.36 -398.98c0,-154.86 126.25,-281.15 281.11,-281.15l2705 0.69c153.9,0.34 280.15,126.64 280.15,281.48l0 399.05c0,154.85 -126.25,281.15 -281.35,281.15z"/>
   <path class="fil3" d="M9523.35 13562.13l-3288.75 0c-156.67,0 -284,-127.38 -284,-284.01l0 -1266.44c0,-157.02 127.33,-284.35 284,-284.35l3288.75 0c157.52,0 284.97,127.33 284.97,284.35l0 1266.44c0,156.63 -127.45,284.01 -284.97,284.01z"/>
  </g>
 </g>
</svg>
