<?xml version="1.0" encoding="UTF-8"?>
<!DOCTYPE svg PUBLIC "-//W3C//DTD SVG 1.1//EN" "http://www.w3.org/Graphics/SVG/1.1/DTD/svg11.dtd">
<!-- Creator: CorelDRAW 2021 (64-Bit) -->
<svg xmlns="http://www.w3.org/2000/svg" xml:space="preserve" width="150mm" height="150mm" version="1.1" style="shape-rendering:geometricPrecision; text-rendering:geometricPrecision; image-rendering:optimizeQuality; fill-rule:evenodd; clip-rule:evenodd"
viewBox="0 0 15000 15000"
 xmlns:xlink="http://www.w3.org/1999/xlink"
 xmlns:xodm="http://www.corel.com/coreldraw/odm/2003">
 <defs>
  <style type="text/css">
   <![CDATA[
    .fil1 {fill:white}
    .fil0 {fill:#35A7DF;fill-rule:nonzero}
   ]]>
  </style>
 </defs>
 <g id="Layer_x0020_1">
  <metadata id="CorelCorpID_0Corel-Layer"/>
  <path class="fil0" d="M14998.53 7501.47c0,4142.39 -3357.93,7500 -7499.99,7500 -4142.17,0 -7500.01,-3357.61 -7500.01,-7500 0,-4142.39 3357.84,-7500 7500.01,-7500 4142.06,0 7499.99,3357.61 7499.99,7500z"/>
  <g id="_1306147177040">
   <path class="fil1" d="M2763.48 12013.64l2959.87 2.53c25.99,-1165.27 67.98,-848.83 -384.22,-1781.63 -124.7,-257.28 -684.67,-1314.74 -710.78,-1501.87l427.8 -125.68c79.28,268.99 300.85,658.8 433.14,924.89 784.72,1578.29 401.77,1394.91 2733.24,1394.91 357.05,0 979.73,58.72 1263.9,-100.91 295.83,-166.19 390.71,-676.38 156.24,-956.75 -210.06,-251.2 -704.17,-231 -1109.45,-272.7 -420.53,-43.29 -835.68,-80.71 -1250.55,-132.98 -110.29,-355.58 -335.78,-815.98 -485.66,-1170.9 -333.25,-789.13 -555.4,-1612.82 -1419.69,-1894.46 -491.37,-160.12 -999.8,-70.35 -1384.18,143.06 -764.32,424.42 -850.54,1311.56 -948.43,2398.65 -92.1,1022.94 -208.68,2050.45 -281.23,3073.84z"/>
   <path class="fil1" d="M7320.17 8356.04c144.41,-103.81 979.36,-1755.02 1034.45,-1869.28l2726.84 1.14 -759.79 1373.34c-133.15,226.55 -732.94,1227.7 -763.22,1389.65 385.32,225.9 661.41,418.21 674.71,1001.15 12.08,526.76 -258.91,883.92 -630.68,1033.39 -469.83,188.93 -2545.62,121.72 -3166.84,88.47l-15.05 644.39 5812.1 -1.8 0.77 -4251.19c1.63,-392.7 -11.59,-407.39 -145.47,-720.24 -87.65,-204.93 -169.5,-400.3 -256.78,-607.79 -108.1,-256.95 -105.93,-413.07 -428.17,-419.97 -379.81,-8.12 -3207.52,-49.66 -3339.97,67.61l-908.97 1651.59c-82.55,195.74 108.5,433.47 166.07,619.54z"/>
   <path class="fil1" d="M5948.27 3020.01c-789.13,164.93 -1483.22,923.74 -1264.02,1926.44 168.77,771.87 947.86,1441.73 1920.41,1237.86 774.6,-162.36 1440.58,-939.86 1245.2,-1911.75 -154.24,-767.5 -941.25,-1453.31 -1901.59,-1252.55z"/>
  </g>
 </g>
</svg>
