<?xml version="1.0" encoding="UTF-8"?>
<!DOCTYPE svg PUBLIC "-//W3C//DTD SVG 1.1//EN" "http://www.w3.org/Graphics/SVG/1.1/DTD/svg11.dtd">
<!-- Creator: CorelDRAW 2021 (64-Bit) -->
<svg xmlns="http://www.w3.org/2000/svg" xml:space="preserve" width="150mm" height="150mm" version="1.1" style="shape-rendering:geometricPrecision; text-rendering:geometricPrecision; image-rendering:optimizeQuality; fill-rule:evenodd; clip-rule:evenodd"
viewBox="0 0 15000 15000"
 xmlns:xlink="http://www.w3.org/1999/xlink"
 xmlns:xodm="http://www.corel.com/coreldraw/odm/2003">
 <defs>
  <style type="text/css">
   <![CDATA[
    .fil3 {fill:#FEFEFE;fill-rule:nonzero}
    .fil1 {fill:#E5E5E5;fill-rule:nonzero}
    .fil0 {fill:#364558;fill-rule:nonzero}
    .fil2 {fill:#31404F;fill-rule:nonzero}
    .fil4 {fill:#283B51;fill-rule:nonzero}
   ]]>
  </style>
 </defs>
 <g id="Layer_x0020_1">
  <metadata id="CorelCorpID_0Corel-Layer"/>
  <g id="_1303982448896">
   <path class="fil0" d="M14998.53 7501.4c0,4142.34 -3353.35,7500.07 -7490.29,7500.07 -4136.64,0 -7490.3,-3357.73 -7490.3,-7500.07 0,-4141.91 3353.66,-7499.93 7490.3,-7499.93 4136.94,0 7490.29,3358.02 7490.29,7499.93z"/>
   <path class="fil1" d="M821.77 10936.2c-526.35,-1025.91 -823.24,-2188.98 -823.24,-3421.36 0,-2578.36 1299.33,-4852.53 3277.99,-6202.43 -1968.03,1351.35 -3258.58,3619.22 -3258.58,6188.99 0,1219.16 290.48,2370.38 806,3388.12 -1.55,28.19 -2.17,43.97 -2.17,46.68z"/>
   <path class="fil2" d="M823.94 10889.52c-515.52,-1017.74 -806,-2168.96 -806,-3388.12 0,-2569.77 1290.55,-4837.64 3258.58,-6188.99 1200.23,-818.73 2650.37,-1297.6 4212.31,-1297.6 1648.23,0 3172.28,533.14 4409.15,1436.2 -244.13,-10.54 -483.61,-15.7 -717.11,-15.7 -9643.73,0 -10317.6,8733.95 -10356.93,9454.21z"/>
   <path class="fil3" d="M7497.4 10072.01c-357.58,0 -714.21,-1.91 -1070.82,1.93 -102.59,0.95 -177.36,-33.55 -246.38,-108.33 -260.76,-277.06 -421.81,-591.5 -447.7,-979.75 -21.09,-303.9 -159.13,-575.2 -337.44,-820.62 -126.55,-174.47 -261.72,-344.16 -400.73,-510.01 -476.45,-570.4 -601.08,-1239.55 -542.6,-1956.62 106.41,-1298.99 1113.97,-2429.25 2514.57,-2667.96 1679.58,-284.72 3256.57,803.36 3538.42,2418.7 144.76,834.04 12.46,1616.3 -567.53,2279.7 -103.54,118.87 -201.32,244.45 -296.22,371.96 -232,308.69 -376.76,651.89 -405.52,1042.07 -25.89,360.45 -237.75,626.96 -478.37,871.42 -39.31,39.3 -117.92,54.64 -178.31,55.6 -360.46,4.79 -720.92,1.91 -1081.37,1.91z"/>
   <path class="fil3" d="M7485.9 11045.06c-316.37,0 -633.68,0.96 -950.04,0 -132.29,0 -208.99,-60.4 -211.87,-162.98 -3.83,-105.45 78.62,-174.47 213.79,-174.47 640.38,0 1280.77,-0.96 1922.11,0 129.43,0.96 207.08,67.11 206.12,170.64 -0.97,103.54 -76.69,165.85 -208.03,166.81 -21.09,0.96 -43.15,0 -64.23,0 -302.94,0 -604.92,0 -907.85,0z"/>
   <path class="fil3" d="M7498.36 10224.44c320.19,0 640.38,0 960.57,0 132.3,0.96 207.08,61.36 207.08,165.85 0,104.49 -73.82,165.85 -207.08,165.85 -644.22,0.96 -1288.44,0.96 -1932.66,0 -129.42,0 -206.11,-69.03 -202.28,-171.6 3.84,-100.66 76.7,-159.14 202.28,-160.1 324.03,0 648.06,0 972.09,0z"/>
   <path class="fil3" d="M7495.48 11528.23c-270.34,0 -540.68,0.95 -810.07,0 -126.54,0 -190.77,-59.44 -189.81,-167.77 1.91,-108.33 65.19,-162.97 194.6,-162.97 536.85,-0.97 1073.71,-0.97 1610.56,0 127.5,0 193.65,55.6 195.56,162.01 1.92,110.24 -66.14,168.73 -200.36,168.73 -267.47,0.95 -533.97,0 -800.48,0z"/>
   <path class="fil3" d="M7493.57 12017.14c-122.72,0 -245.42,0.96 -368.13,0 -132.3,-1.91 -204.2,-63.27 -202.28,-171.6 0.96,-103.53 70.94,-165.85 196.53,-165.85 252.12,-1.91 504.25,-1.91 757.34,0 120.79,0.96 194.61,69.03 193.65,170.65 -1.92,101.61 -75.74,164.89 -198.44,166.8 -126.55,0.96 -253.09,0 -378.67,0z"/>
   <path class="fil4" d="M7013.27 6779.97c-11.5,-178.31 -18.21,-347.03 -34.51,-513.84 -12.46,-119.83 -110.25,-190.77 -226.24,-181.18 -116,10.54 -189.82,95.86 -189.82,218.57 0,209.95 171.6,396.88 450.57,476.45zm968.25 -4.79c265.55,-53.68 459.2,-268.43 450.58,-487 -3.84,-110.24 -77.66,-190.77 -184.07,-202.28 -112.16,-12.46 -216.66,53.69 -229.12,163.94 -20.13,172.55 -25.88,347.99 -37.39,525.34zm-627.92 2789.7c-69.02,0 -117.91,0 -175.44,0 -15.34,-255.96 -30.67,-507.12 -46.01,-758.3 -34.52,-578.07 -70.94,-1157.1 -101.62,-1737.09 -3.83,-68.07 -33.56,-91.08 -91.07,-121.75 -138.05,-72.86 -281.85,-147.64 -396.89,-250.21 -134.21,-120.79 -182.15,-290.47 -152.42,-473.58 31.63,-192.69 179.26,-312.52 379.62,-314.44 193.65,-0.96 350.87,115.04 377.72,301.98 25.88,177.35 33.55,358.54 42.18,537.81 2.87,67.1 20.13,100.66 91.07,99.69 139.96,-0.95 279.93,-0.95 419.89,1.93 77.65,1.91 103.54,-28.76 105.46,-108.33 4.79,-172.56 16.29,-346.08 37.38,-517.68 18.22,-153.39 113.12,-257.88 260.76,-299.1 146.68,-42.18 288.56,-18.22 399.76,94.91 128.46,131.33 131.34,290.47 80.53,454.4 -78.61,250.21 -274.18,381.54 -504.26,465.91 -84.36,30.68 -114.08,69.02 -118.87,157.22 -37.39,691.2 -79.57,1381.43 -119.83,2071.66 -7.67,129.43 -17.26,257.88 -25.88,393.06 -53.69,0 -102.58,0 -174.48,0 48.89,-840.75 97.78,-1683.41 145.71,-2529.91 -193.65,0 -374.84,0 -579.02,0 47.93,837.87 96.82,1679.58 145.71,2531.82z"/>
  </g>
 </g>
</svg>
