<?xml version="1.0" encoding="UTF-8"?>
<!DOCTYPE svg PUBLIC "-//W3C//DTD SVG 1.1//EN" "http://www.w3.org/Graphics/SVG/1.1/DTD/svg11.dtd">
<!-- Creator: CorelDRAW 2021 (64-Bit) -->
<svg xmlns="http://www.w3.org/2000/svg" xml:space="preserve" width="150mm" height="150mm" version="1.1" style="shape-rendering:geometricPrecision; text-rendering:geometricPrecision; image-rendering:optimizeQuality; fill-rule:evenodd; clip-rule:evenodd"
viewBox="0 0 15000 15000"
 xmlns:xlink="http://www.w3.org/1999/xlink"
 xmlns:xodm="http://www.corel.com/coreldraw/odm/2003">
 <defs>
  <style type="text/css">
   <![CDATA[
    .fil3 {fill:#FEFEFE;fill-rule:nonzero}
    .fil0 {fill:#E4453F;fill-rule:nonzero}
    .fil1 {fill:#E5E5E5;fill-rule:nonzero}
    .fil2 {fill:#CF3D3A;fill-rule:nonzero}
   ]]>
  </style>
 </defs>
 <g id="Layer_x0020_1">
  <metadata id="CorelCorpID_0Corel-Layer"/>
  <path class="fil0" d="M14998.53 7501.46c0,4142.78 -3357.7,7500.01 -7500,7500.01 -4142,0 -7500,-3357.23 -7500,-7500.01 0,-4141.74 3358,-7499.99 7500,-7499.99 4142.3,0 7500,3358.25 7500,7499.99z"/>
  <path class="fil1" d="M11924.35 1438.21c-3.92,0 -7.95,0 -11.88,-1.04 -1230.63,-897.18 -2744.76,-1428.47 -4383.04,-1435.7 1642.52,4.13 3161.2,537.48 4394.92,1436.74z"/>
  <path class="fil2" d="M833.68 10923.8c-527.03,-1026.39 -824.2,-2189.22 -824.2,-3422.34 0,-4141.74 3358.01,-7499.99 7500,-7499.99 6.62,0 13.33,0 19.95,0 1638.28,7.23 3152.41,538.52 4383.04,1435.7 -240.11,-9.3 -476.09,-14.47 -706.27,-14.47 -10034.01,0 -10370.03,9430.82 -10372.52,9501.1z"/>
  <g id="_1303753883936">
   <g>
    <path class="fil3" d="M5657.04 11594.2c733.14,1151.78 2537.74,1222.68 3331.35,541.62 -13.33,-7.64 -27.29,-12.4 -37,-21.59 -21.19,-19.65 -46.42,-46.62 -68.22,-77.63 -72.15,-103.37 -33.38,-170.15 9.72,-206.84 25.74,-22.42 57.88,-35.76 91.58,-42.07 201.03,-37.93 614.07,-98.91 686.53,12.1 88.26,135.51 -49.11,468.24 -120.63,663.28 -34.32,92.72 -97.36,157.94 -195.04,124.04 -53.96,-18.81 -89.52,-91.07 -144.3,-151.01 -164.96,70.59 -232.67,139.74 -423.99,224.09 -758.57,344.51 -1451.82,242.59 -2175.46,-105.02 -294.06,-141.29 -568.48,-349.57 -759.19,-634.65 -70.5,-105.33 -130.54,-217.48 -195.35,-326.32z"/>
    <path class="fil3" d="M5088.24 3803.07c-1365.32,-10.33 -2405.76,1465.7 -2265.39,2502.43 13.85,-7.23 25.43,-16.54 38.45,-19.63 27.9,-7.24 64.09,-13.44 102.02,-14.48 126.21,-5.17 161.04,64.09 168.58,119.91 4.55,34.11 -1.55,68.22 -14.47,100.26 -77.62,189.16 -250.96,569.53 -383.68,569.53 -161.55,0 -366.21,-295.62 -490.96,-462.03 -59.34,-78.56 -79.7,-167.45 1.85,-230.5 45.17,-35.14 125.07,-25.84 205.38,-39.28 30.49,-176.75 9.2,-270.82 42.28,-477.54 123.1,-823.81 585.23,-1350.96 1270.32,-1769.59 278.35,-169.51 602.59,-287.35 945.45,-292.51 126.61,-2.07 253.45,9.3 380.17,13.43z"/>
    <path class="fil3" d="M12286.98 7090.03c485.6,-1276.54 -535.51,-2766 -1556.01,-2995.47 1.76,15.51 6.1,29.97 4.86,43.41 -3.1,28.95 -9.71,65.12 -21.6,100.26 -39.69,119.91 -116.39,129.21 -171.59,116.8 -33.38,-8.27 -63.35,-25.84 -88.58,-48.57 -150.7,-138.51 -446.42,-433.1 -400.62,-558.16 55.81,-151.95 404.86,-239.81 604.15,-299.76 94.88,-27.91 184.9,-15.51 215.92,82.69 17.26,54.78 -19.44,126.11 -34.94,205.69 155.25,90.96 251.17,103.37 433.09,206.73 729.32,402.08 1062.04,1018.13 1215.74,1806.79 62.54,320.43 59.23,664.63 -55.2,988.16 -42.37,118.86 -96.33,234.63 -145.22,351.43z"/>
    <path class="fil3" d="M6439.69 3094c1.03,1.03 2.07,1.03 3,2.07 5.07,3.1 9.2,5.17 17.16,8.27 -1.14,0 -2.38,-1.04 -3.72,-2.07 -4.86,-3.1 -11.17,-5.16 -16.44,-8.27zm20.16 10.34c0.21,0 0.52,1.04 0.62,1.04 0.1,0 0.1,0 0.1,0l0 0c-0.2,-1.04 -0.51,-1.04 -0.72,-1.04z"/>
    <path class="fil3" d="M6439.69 3094c5.27,3.11 11.58,5.17 16.44,8.27 -3.93,-2.07 -8.89,-4.13 -13.44,-6.2 -0.93,-1.04 -1.97,-1.04 -3,-2.07z"/>
    <path class="fil3" d="M6460.57 3105.38l0 0c0,0 0,0 -0.1,0 -0.1,0 -0.41,-1.04 -0.62,-1.04 0.21,0 0.52,0 0.72,1.04z"/>
    <path class="fil3" d="M9408.45 5375.23l0 1152.5c0,23.78 1.15,27.92 -21.6,27.92l-3635.55 0c-22.64,0 -42.68,-4.14 -42.68,-27.92l0 -1152.5c0,-18.6 -1.04,-37.2 -0.21,-55.81 13.23,-273.92 122.9,-523.02 294.78,-709.08 5.07,-6.19 9.93,-11.37 15.1,-16.54 85.89,-89.92 185.95,-164.35 296.54,-219.12 6.72,-3.11 13.23,-6.21 20.06,-9.3 30.49,-14.48 61.7,-27.92 93.53,-38.25 7.14,-3.1 14.27,-5.17 21.4,-8.27 28.63,-9.3 57.67,-17.57 87.24,-23.78 36.18,34.11 73.9,67.19 112.97,97.17 99.95,78.55 209.1,144.7 324.87,195.36 21.71,10.33 43.72,18.6 65.74,27.9 85.27,32.05 172.51,56.85 261.5,73.39 87.24,16.54 176.13,24.81 266.06,24.81 102.84,0 203.93,-10.34 302.95,-31.01 12.3,-2.07 24.6,-7.24 36.9,-7.24 0,0 0,0 0.11,0 18.39,0 36.69,0 54.99,0 0,0 0,0 0.1,0 48.06,0 95.51,-37.21 142.32,-56.85 18.51,-7.23 37.01,-23.77 55.51,-31 90.34,-40.31 175.93,-94.07 255.93,-155.05l0 0c9.09,0 17.88,-8.27 26.77,-14.47 52.71,-39.28 103.05,-79.6 151.32,-126.1 456.13,106.46 794.54,524.04 818.21,1026.39 0.83,18.61 -4.86,38.25 -4.86,56.85z"/>
    <path class="fil3" d="M5748.51 7597.55c0,19.64 -0.51,38.25 -1.45,56.85 -1.03,19.63 -2.37,38.25 -4.34,56.85 -2.79,28.11 -6.72,55.92 -11.68,83.31 -5.38,29.67 -11.88,59.43 -19.54,88.16 -14.77,55.82 -33.8,109.89 -56.53,161.98 -3.31,7.33 -6.61,14.88 -10.13,22.12 -12.1,26.15 -25.12,51.27 -39.07,76.17 -4.24,7.55 -8.48,14.79 -12.82,22.12 -52.09,87.66 -115.77,167.66 -189.05,237.43 -6.92,6.72 -14.06,13.34 -21.18,19.75 -12.31,11.26 -24.71,21.81 -37.42,32.45 -8.38,6.93 -16.85,13.64 -25.43,20.37 -18.91,14.77 -38.25,29.04 -57.99,42.38 -2.89,2.16 -5.79,3.92 -8.68,5.78 -26.25,17.57 -53.24,33.91 -81.04,49.41 -25.12,13.95 -50.75,26.66 -76.9,38.55 -1.55,0.93 -3.2,1.55 -4.75,2.07 -51.89,23.36 -105.84,42.79 -161.56,57.99 -11.68,3 -23.56,6.09 -35.45,9.09 -55.92,13.03 -113.39,22.12 -172.2,26.67 -18.81,1.56 -37.83,2.38 -56.85,3 -9.61,0 -19.22,0.31 -28.83,0.31 -9.52,0 -19.13,-0.31 -28.64,-0.31 -19.12,-0.62 -38.04,-1.44 -56.95,-3 -58.82,-4.55 -116.39,-13.64 -172.2,-26.67 -11.89,-3 -23.77,-6.09 -35.56,-9.09 -55.71,-15.2 -109.66,-34.63 -161.45,-57.99 -1.66,-0.52 -3.1,-1.14 -4.75,-2.07 -23.47,-10.64 -46.42,-22.12 -68.95,-34.31 -30.49,-16.34 -60.26,-34.22 -89,-53.65 -2.88,-1.86 -5.78,-3.62 -8.58,-5.78 -19.84,-13.34 -39.27,-27.61 -58.18,-42.38 -8.48,-6.73 -16.96,-13.44 -25.23,-20.37 -12.81,-10.64 -25.32,-21.19 -37.51,-32.45 -13.55,-12.2 -26.88,-24.91 -39.8,-37.94 -65.53,-65.43 -122.9,-139.23 -170.44,-219.24 -4.45,-7.33 -8.69,-14.57 -12.82,-22.12 -13.95,-24.9 -26.98,-50.02 -39.07,-76.17 -3.42,-7.24 -6.82,-14.79 -10.13,-22.12 -22.84,-52.09 -41.86,-106.16 -56.54,-161.98 -7.65,-28.73 -14.26,-58.49 -19.64,-88.16 -4.86,-27.39 -8.68,-55.2 -11.57,-83.31 -1.97,-18.6 -3.41,-37.22 -4.34,-56.85 -0.94,-18.6 -1.46,-37.21 -1.46,-56.85 0,-19.64 -0.31,-38.25 0.73,-56.85 0.52,-12.4 1.55,-23.78 1.55,-35.14l0 0c0,-7.24 2.07,-14.48 2.68,-21.71 0.73,-7.24 2.08,-14.47 2.9,-20.67 2.49,-21.71 5.79,-42.38 9.41,-63.06 5.38,-29.97 11.99,-58.91 19.64,-87.86 14.78,-55.81 33.8,-109.56 56.64,-162.27 1.65,-3.11 3.31,-7.24 4.96,-10.34 1.75,-4.14 3.41,-8.27 5.17,-11.37 12.09,-25.84 25.12,-51.68 39.07,-76.49 4.13,-7.24 8.37,-14.47 12.82,-21.71 52.09,-87.85 115.76,-167.44 189.05,-237.74 7.02,-6.19 14.05,-13.43 21.19,-19.63 12.19,-11.37 24.7,-21.71 37.51,-32.05 8.27,-7.23 16.75,-13.44 25.23,-20.67 18.91,-14.47 38.34,-28.94 58.18,-42.38 2.8,-2.07 5.7,-4.13 8.58,-6.19 49.93,-33.08 102.75,-63.06 157.95,-87.87 1.65,-1.03 3.09,-1.03 4.75,-2.06 51.79,-22.74 105.74,-42.38 161.45,-57.89 11.79,-3.1 23.67,-6.2 35.56,-9.3 55.81,-13.44 113.38,-21.71 172.2,-25.85 18.91,-2.06 37.83,-3.09 56.95,-3.09 9.51,-1.04 19.12,-1.04 28.64,-1.04 9.61,0 19.22,0 28.83,1.04 19.02,0 38.04,1.03 56.85,3.09 58.81,4.14 116.28,12.41 172.2,25.85 11.89,3.1 23.77,6.2 35.45,9.3 55.72,15.51 109.67,35.15 161.56,57.89 1.55,1.03 3.2,1.03 4.75,2.06 55.2,24.81 108.01,54.79 157.94,87.87 2.89,2.06 5.79,4.12 8.68,6.19 19.74,13.44 39.08,27.91 57.99,42.38 8.58,7.23 17.05,13.44 25.43,20.67 12.71,10.34 25.11,20.68 37.42,32.05 7.02,6.2 14.05,12.4 20.87,19.63 73.49,70.3 137.27,149.89 189.36,237.74 4.34,7.24 8.58,14.47 12.82,21.71 13.95,24.81 26.97,50.65 39.07,76.49 3.52,7.23 6.82,14.47 10.13,21.71 22.73,52.71 41.76,106.46 56.53,162.27 7.66,28.95 14.16,57.89 19.54,87.86 4.96,27.91 8.89,55.82 11.68,83.73 0.94,8.26 1.66,17.57 2.38,25.83 0.72,10.35 1.44,20.68 1.96,31.02 0.94,18.6 1.45,37.21 1.45,56.85z"/>
    <path class="fil3" d="M3506.28 7494.19c1.03,1.03 1.96,2.06 2.99,2.06 5.07,3.1 9.1,5.17 17.06,8.27 -1.13,0 -2.27,-1.03 -3.62,-2.06 -4.86,-2.08 -11.16,-5.17 -16.43,-8.27zm20.05 10.33c0.31,1.04 0.52,1.04 0.72,1.04 0,0 0,0 0.11,0l0 0c-0.31,0 -0.52,-1.04 -0.83,-1.04z"/>
    <path class="fil3" d="M3506.28 7494.19c5.27,3.1 11.57,6.19 16.43,8.27 -4.03,-2.08 -8.99,-4.14 -13.44,-6.21 -1.03,0 -1.96,-1.03 -2.99,-2.06z"/>
    <path class="fil3" d="M3527.16 7505.56l0 0c-0.11,0 -0.11,0 -0.11,0 -0.2,0 -0.41,0 -0.72,-1.04 0.31,0 0.52,1.04 0.83,1.04z"/>
    <path class="fil3" d="M6497.06 9775.42l0 1152.5c0,23.67 -20.99,25.11 -43.62,25.11l-3635.66 0c-22.53,0 -50.85,-1.44 -50.85,-25.11l0 -1152.5c0,-18.5 3.1,-36.9 3.93,-55.2 13.12,-274.43 124.96,-523.43 296.86,-710.21 5.06,-5.48 10.85,-10.96 16.12,-16.33 85.79,-89.51 186.46,-163.84 296.96,-218.72 6.71,-3.31 13.54,-6.41 20.36,-9.71 30.49,-14.27 61.81,-27.3 93.75,-38.45 7.03,-2.49 14.26,-4.86 21.4,-7.34 28.62,-9.41 57.77,-17.58 87.23,-24.61 36.18,34.94 73.91,67.71 112.98,98.3 100.05,78.25 209.2,143.47 324.87,194.74 21.81,9.72 43.72,18.81 65.73,27.29 85.27,33.08 172.62,57.57 261.61,74.31 87.24,16.03 176.03,23.99 265.95,23.99 102.95,0 204.04,-10.96 302.96,-31.95 12.4,-2.68 24.7,-8.78 36.9,-8.78 0,0 0.1,0 0.1,0 18.4,0 36.8,0 54.99,0l0.1 0c48.06,0 95.51,-36.38 142.43,-54.88 18.61,-7.24 37.11,-24.5 55.41,-32.77 90.54,-40 175.81,-94.27 256.03,-154.95 0,0 0,0 0,0 8.99,0 17.77,-6.61 26.56,-13.02 52.71,-39.18 103.16,-78.87 151.32,-125.27 456.34,106.46 805.7,524.67 829.28,1026.91 0.92,18.19 6.3,38.15 6.3,56.65z"/>
    <path class="fil3" d="M12071.68 7760.55c0,19.13 -0.62,38.25 -1.55,57.26 -0.93,18.82 -2.37,37.63 -4.24,56.44 -2.69,28.22 -6.61,55.82 -11.48,83.11 -5.47,30.07 -12.19,59.43 -19.73,88.58 -14.89,55.82 -33.7,109.77 -56.44,161.66 -3.31,7.55 -6.62,14.78 -10.23,22.43 -12.2,25.73 -24.91,51.27 -39.17,76.08 -3.93,7.23 -8.17,14.57 -12.72,21.81 -51.89,87.75 -115.56,167.75 -188.95,237.84 -7.02,6.61 -13.95,13.02 -21.19,19.63 -12.2,10.96 -24.9,21.91 -37.62,32.57 -8.16,6.61 -16.64,13.53 -25.22,20.25 -18.82,14.58 -38.14,28.84 -58.2,42.17 -2.68,2.07 -5.78,3.93 -8.47,6 -26.36,17.36 -53.44,34 -80.93,49.2 -25.22,13.95 -50.96,26.67 -77.11,38.76 -1.55,0.62 -3,1.24 -4.86,2.17 -51.88,23.05 -105.53,42.38 -161.34,57.57 -11.79,3.41 -23.57,6.41 -35.45,9.1 -55.82,13.44 -113.39,22.43 -172.21,27.08 -18.81,1.14 -37.93,2.38 -57.05,2.69 -9.41,0.31 -19.13,0.31 -28.53,0.31 -9.72,0 -19.43,0 -28.84,-0.31 -19.02,-0.31 -38.14,-1.55 -56.95,-2.69 -58.82,-4.65 -116.18,-13.64 -172.31,-27.08 -11.78,-2.69 -23.57,-5.69 -35.45,-9.1 -55.51,-15.19 -109.47,-34.52 -161.34,-57.57 -1.77,-0.93 -3.31,-1.55 -4.87,-2.17 -23.36,-10.85 -46.4,-22.11 -68.83,-34.21 -30.6,-16.75 -60.37,-34.63 -89.1,-53.75 -2.8,-2.07 -5.79,-3.93 -8.58,-6 -19.95,-13.33 -39.07,-27.59 -58.19,-42.17 -8.48,-6.72 -16.96,-13.64 -25.12,-20.25 -12.82,-10.66 -25.22,-21.61 -37.63,-32.57 -13.33,-12.4 -26.77,-25.12 -39.79,-37.83 -65.43,-65.53 -122.79,-139.23 -170.44,-219.64 -4.24,-7.24 -8.48,-14.58 -12.72,-21.81 -13.95,-24.81 -26.97,-50.35 -39.07,-76.08 -3.41,-7.65 -6.72,-14.88 -10.02,-22.43 -23.06,-51.89 -41.87,-105.84 -56.75,-161.66 -7.54,-29.15 -14.27,-58.51 -19.64,-88.58 -4.86,-27.29 -8.48,-54.89 -11.58,-83.11 -1.75,-18.81 -3.3,-37.62 -4.24,-56.44 -0.93,-19.01 -1.54,-38.13 -1.54,-57.26 0,-19.43 -7.86,-37.93 -6.93,-57.57 0.62,-11.37 -6.1,-22.74 -6.1,-35.14l0 0c0,-7.24 9.72,-14.47 10.33,-20.68 0.94,-7.24 5.8,-14.47 6.73,-21.7 2.38,-20.68 7.85,-41.35 11.47,-62.02 5.17,-29.98 12.72,-58.92 20.67,-87.86 14.48,-55.82 34.21,-110.6 56.95,-162.28 1.56,-4.14 3.62,-7.23 5.18,-11.37 1.85,-3.1 3.61,-7.24 5.47,-10.34 11.79,-25.84 25.12,-51.68 39.07,-76.48 3.93,-7.24 8.27,-15.51 12.72,-22.75 52.19,-86.83 115.87,-167.44 189.04,-236.7 6.93,-7.24 14.17,-13.43 21.19,-19.64 12.41,-11.37 24.81,-21.71 37.63,-33.07 8.16,-7.24 16.64,-13.44 25.12,-19.65 19.12,-15.5 38.24,-28.93 58.19,-42.37 2.79,-2.07 5.78,-4.13 8.58,-6.21 50.03,-33.07 102.74,-63.04 157.93,-87.85 1.56,-1.03 3.1,-2.07 4.87,-2.07 51.87,-23.77 105.83,-43.42 161.34,-57.88 11.88,-3.11 23.67,-6.2 35.45,-9.31 56.13,-13.43 113.49,-21.7 172.31,-26.87 18.81,-1.03 37.93,-2.07 56.95,-3.1 9.41,0 19.12,0 28.84,0 9.4,0 19.12,0 28.53,0 19.12,1.03 38.24,2.07 57.05,3.1 58.82,5.17 116.39,13.44 172.21,26.87 11.88,3.11 23.66,6.2 35.45,9.31 55.81,14.46 109.46,34.11 161.34,57.88 1.86,0 3.31,1.04 4.86,2.07 55.2,24.81 108.02,54.78 158.04,87.85 2.69,2.08 5.79,4.14 8.47,6.21 20.06,13.44 39.38,26.87 58.2,42.37 8.58,6.21 17.06,12.41 25.22,19.65 12.72,11.36 25.42,21.7 37.62,33.07 6.93,6.21 13.95,12.4 20.88,18.61 73.39,70.29 137.07,150.9 189.26,237.73 4.55,7.24 8.79,15.51 12.72,22.75 14.26,24.8 26.97,50.64 39.17,76.48 3.61,7.24 6.92,14.48 10.23,21.71 22.74,51.68 41.55,106.46 56.44,162.28 7.54,28.94 14.26,57.88 19.73,87.86 4.87,27.9 8.79,54.78 11.48,83.72 0.93,8.27 1.87,16.54 2.48,25.84 0.62,10.34 1.55,20.68 1.76,29.98 0.93,19.64 1.55,38.14 1.55,57.57z"/>
    <path class="fil3" d="M9829.34 7657.5c1.24,1.03 2.07,1.03 3,2.07 5.17,2.06 9.41,5.16 17.37,8.27 -1.24,-1.04 -2.49,-1.04 -3.72,-2.08 -4.86,-3.09 -11.17,-5.16 -16.65,-8.26zm20.37 10.34c0.31,0 0.31,0 0.51,0l0 0 0 0c-0.2,0 -0.2,0 -0.51,0z"/>
    <path class="fil3" d="M9829.34 7657.5c5.48,3.1 11.79,5.17 16.65,8.26 -3.93,-2.06 -9.1,-4.13 -13.65,-6.19 -0.93,-1.04 -1.76,-1.04 -3,-2.07z"/>
    <path class="fil3" d="M9850.22 7667.84l0 0 0 0c-0.2,0 -0.2,0 -0.51,0 0.31,0 0.31,0 0.51,0z"/>
    <path class="fil3" d="M12804.93 9938.32l0 1152.4c0,23.66 -5.69,44.34 -28.11,44.34l-3635.86 0c-22.43,0 -35.77,-20.68 -35.77,-44.34l0 -1152.4c0,-18.51 -4.55,-37.01 -3.72,-55.2 13.44,-274.43 121.35,-523.43 293.34,-710.01 5.06,-5.68 8.78,-11.15 14.26,-16.32 85.79,-89.41 185.23,-163.73 295.93,-218.62 6.72,-3.3 13.03,-6.71 19.74,-10.02 30.6,-14.27 61.81,-26.98 93.75,-38.25 6.92,-2.68 13.85,-5.17 21.19,-7.23 28.42,-9.72 57.57,-17.89 87.34,-24.6 36.07,34.62 73.7,67.38 112.77,97.98 100.06,78.56 209.31,143.79 324.86,194.94 21.81,9.42 43.62,18.51 65.75,26.99 85.16,33.07 172.61,57.98 261.4,74.32 87.34,16.12 176.23,24.28 266.26,24.28 102.84,0 203.83,-16.74 302.64,-37.62 12.51,-2.69 24.91,-14.47 37,-14.47l0 0c18.61,0 37.01,0 55.2,0l0 0c48.27,0 95.51,-30.7 142.64,-49.2 18.4,-7.24 36.9,-12.41 55.41,-20.26 90.43,-40.11 175.6,-82.28 255.91,-142.85l0 0c8.9,0 17.68,-16.12 26.47,-22.74 52.71,-39.18 103.15,-83.41 151.32,-129.83 456.44,106.47 797.85,522.19 821.52,1024.44 0.93,18.19 -1.24,35.76 -1.24,54.27z"/>
   </g>
   <path class="fil3" d="M8716.72 3243.23c0,18.6 -0.62,38.24 -1.55,56.85 -1.24,19.63 -2.38,38.24 -4.24,56.85 -3,27.9 -7.03,55.81 -11.78,83.72 -5.48,28.94 -11.89,58.92 -19.43,87.86 -14.89,55.81 -34.01,109.57 -56.75,161.25 -3.3,8.26 -6.61,15.5 -10.03,22.74 -12.09,25.84 -25.12,51.68 -39.07,76.48 -4.24,7.24 -8.47,14.48 -12.82,21.71 -52.09,87.86 -115.76,167.45 -189.14,237.74 -7.04,6.2 -13.96,12.4 -21.3,19.64 -12.09,11.36 -24.5,21.71 -37.31,32.04 -8.48,7.24 -16.96,14.47 -25.43,20.67 -18.81,14.47 -38.24,28.94 -57.99,42.38 -3,2.07 -5.68,4.13 -8.68,6.2 -26.15,17.57 -53.12,34.11 -81.04,48.58 -25.11,14.47 -50.74,26.87 -76.89,39.28 -1.56,0 -3.1,1.03 -4.76,2.07 -51.78,22.74 -105.74,42.37 -161.45,57.88 -11.78,3.11 -23.67,6.2 -35.56,8.27 -55.82,13.44 -113.28,22.74 -172.19,26.88 -18.82,2.07 -37.84,3.1 -56.86,3.1 -9.51,0 -19.12,0 -28.73,0 -9.61,0 -19.23,0 -28.74,0 -19.12,0 -38.03,-1.03 -56.85,-3.1 -58.91,-4.14 -116.38,-13.44 -172.3,-26.88 -11.88,-2.07 -23.77,-5.16 -35.46,-8.27 -55.7,-15.51 -109.66,-35.14 -161.55,-57.88 -1.55,-1.04 -3.1,-2.07 -4.75,-2.07 -23.36,-11.36 -46.31,-22.74 -68.84,-34.11 -30.6,-17.57 -60.37,-35.14 -89.1,-53.75 -2.89,-2.07 -5.69,-4.13 -8.58,-6.2 -19.85,-13.44 -39.17,-27.91 -58.09,-42.38 -8.48,-6.2 -16.95,-13.43 -25.32,-20.67 -12.71,-10.33 -25.22,-20.68 -37.52,-32.04 -13.54,-12.41 -26.77,-24.81 -39.79,-38.25 -65.53,-65.12 -122.8,-138.5 -170.45,-219.13 -4.35,-7.23 -8.58,-14.47 -12.81,-21.71 -13.86,-24.8 -26.99,-50.64 -38.97,-76.48 -3.52,-7.24 -6.83,-14.48 -10.14,-22.74 -22.84,-51.68 -41.85,-105.44 -56.64,-161.25 -7.65,-28.94 -14.26,-58.92 -19.53,-87.86 -4.96,-27.91 -8.78,-55.82 -11.68,-83.72 -1.86,-18.61 -3.31,-37.22 -4.24,-56.85 -1.03,-18.61 -1.44,-38.25 -1.44,-56.85 0,-19.65 3.72,-38.25 4.85,-57.89 0.52,-11.37 5.58,-22.74 5.58,-34.1l0 0c0,-7.24 -2.06,-14.48 -1.34,-21.71 0.62,-7.24 -0.1,-14.48 0.72,-21.71 2.49,-20.67 4.76,-41.35 8.38,-62.02 5.37,-29.98 11.47,-58.91 19.22,-87.86 14.68,-55.82 33.49,-109.56 56.33,-162.28 1.66,-3.1 3.21,-7.23 4.86,-10.34 1.66,-4.13 3.31,-8.27 5.07,-11.36 11.98,-25.84 25.11,-51.68 39.07,-76.49 4.13,-7.24 8.36,-14.47 12.82,-21.71 51.98,-87.86 115.76,-167.44 189.04,-237.74 6.93,-7.23 13.95,-13.44 21.09,-19.63 12.3,-11.38 24.81,-21.71 37.52,-33.08 8.37,-6.2 16.84,-13.44 25.32,-19.64 18.92,-14.47 38.24,-28.94 58.09,-42.38 2.89,-2.07 5.69,-4.13 8.58,-6.2 49.92,-33.08 102.74,-63.05 157.94,-87.86 1.65,-1.03 3.2,-1.03 4.75,-2.07 51.89,-23.77 105.85,-42.38 161.55,-57.88 11.69,-3.1 23.58,-6.2 35.46,-9.31 55.92,-12.39 113.39,-21.7 172.3,-26.87 18.82,-1.03 37.73,-2.06 56.85,-2.06 9.51,-1.04 19.13,-1.04 28.74,-1.04 9.61,0 19.22,0 28.73,1.04 19.02,0 38.04,1.03 56.86,2.06 58.91,5.17 116.37,14.48 172.19,26.87 11.89,3.11 23.78,6.21 35.56,9.31 55.71,15.5 109.67,34.11 161.45,57.88 1.66,1.04 3.2,1.04 4.76,2.07 55.39,24.81 108.12,54.78 157.93,87.86 3,2.07 5.68,4.13 8.68,6.2 19.75,13.44 39.18,27.91 57.99,42.38 8.47,6.2 16.95,13.44 25.43,19.64 12.81,11.37 25.22,21.7 37.31,33.08 7.34,6.19 14.26,12.4 20.99,19.63 73.39,69.26 137.36,149.88 189.45,237.74 4.35,7.24 8.58,14.47 12.82,21.71 13.95,24.81 26.98,50.65 39.07,76.49 3.42,7.23 6.73,14.47 10.03,21.7 22.74,52.72 41.86,106.46 56.75,162.28 7.54,28.95 13.95,57.88 19.43,87.86 4.75,27.91 8.78,55.82 11.78,83.73 0.93,8.26 1.45,17.57 2.17,25.84 0.83,10.33 1.45,20.67 2.07,29.97 0.93,19.64 1.55,38.24 1.55,57.89z"/>
  </g>
 </g>
</svg>
