<?xml version="1.0" encoding="UTF-8"?>
<!DOCTYPE svg PUBLIC "-//W3C//DTD SVG 1.1//EN" "http://www.w3.org/Graphics/SVG/1.1/DTD/svg11.dtd">
<!-- Creator: CorelDRAW 2021 (64-Bit) -->
<svg xmlns="http://www.w3.org/2000/svg" xml:space="preserve" width="145mm" height="145mm" version="1.1" style="shape-rendering:geometricPrecision; text-rendering:geometricPrecision; image-rendering:optimizeQuality; fill-rule:evenodd; clip-rule:evenodd"
viewBox="0 0 14500 14500"
 xmlns:xlink="http://www.w3.org/1999/xlink"
 xmlns:xodm="http://www.corel.com/coreldraw/odm/2003">
 <defs>
  <style type="text/css">
   <![CDATA[
    .fil5 {fill:#E9523B;fill-rule:nonzero}
    .fil1 {fill:#D4D2D1;fill-rule:nonzero}
    .fil2 {fill:#ABDDF7;fill-rule:nonzero}
    .fil3 {fill:#8C8C89;fill-rule:nonzero}
    .fil4 {fill:#68B6D0;fill-rule:nonzero}
    .fil0 {fill:#3BB29D;fill-rule:nonzero}
   ]]>
  </style>
 </defs>
 <g id="Layer_x0020_1">
  <metadata id="CorelCorpID_0Corel-Layer"/>
  <g id="_2128933615952">
   <path class="fil0" d="M14494.07 7255.93c0,4004.31 -3245.93,7250 -7250.07,7250 -4004.01,0 -7249.93,-3245.69 -7249.93,-7250 0,-4004.31 3245.92,-7250 7249.93,-7250 4004.14,0 7250.07,3245.69 7250.07,7250z"/>
   <path class="fil1" d="M5530.49 3604.52l-2062.33 517.35c-188.33,46.81 -341.24,278.47 -341.24,517.33l0 6018.47c0,238.87 152.91,381.7 341.24,321.69l2060.88 -508.94 342.68 -97.23 0 -6853.89 -341.23 85.22z"/>
   <path class="fil2" d="M5568.17 3957.42l-1834.75 459.72c-167.68,42.01 -303.31,248.47 -303.31,459.73l0 5354.68c0,212.46 135.63,339.69 303.31,285.68l1833.31 -452.52 304.99 -86.42 0 -6096.49 -303.55 75.62z"/>
   <path class="fil1" d="M8957.64 10907.34l2062.33 -517.35c188.44,-46.81 341.24,-278.47 341.24,-516.14l0 -6019.66c0,-237.67 -152.8,-381.7 -341.24,-321.69l-2060.89 508.94 -342.68 105.63 0 6845.49 341.24 -85.22z"/>
   <path class="fil2" d="M8922.12 10543.64l1813.27 -460.93c165.51,-42.01 300.06,-248.47 300.06,-462.12l0 -5369.09c0,-212.46 -134.55,-340.89 -300.06,-286.88l-1811.84 453.72 -301.14 86.42 0 6115.7 299.71 -76.82z"/>
   <polygon class="fil3" points="8621.32,10992.56 5871.72,10363.59 5871.72,3519.3 8621.32,4148.27 "/>
   <polygon class="fil4" points="8616.4,10626.46 5871.72,9980.68 5871.72,3885.4 8616.4,4502.37 "/>
   <path class="fil5" d="M7040.2 8798.36c-125.43,0 -226.86,-100.83 -226.86,-226.86 0,-124.84 101.43,-225.67 226.86,-225.67 124.95,0 226.37,100.83 226.37,225.67 0,126.03 -101.42,226.86 -226.37,226.86zm463.07 -226.86c0,-255.68 -207.41,-463.33 -463.43,-463.33 -255.67,0 -462.71,207.65 -462.71,463.33 0,43.2 5.64,84.01 16.2,122.43l0 0c0,0 207.41,767.01 446.51,771.81 239.45,4.8 447.23,-773.01 447.23,-773.01l0 0c10.2,-38.42 16.2,-79.23 16.2,-121.23z"/>
   <path class="fil5" d="M4941.27 6337.68c-135.28,0 -244.75,-109.24 -244.75,-244.88 0,-134.43 109.47,-244.86 244.75,-244.86 135.27,0 244.73,110.43 244.73,244.86 0,135.64 -109.46,244.88 -244.73,244.88zm500.39 -244.88c0,-276.06 -223.97,-500.53 -500.39,-500.53 -276.43,0 -500.4,224.47 -500.4,500.53 0,46.82 6.36,90.03 18,133.25l-0.36 0c0,0 224.34,828.22 482.76,833.03 258.53,4.8 483.23,-835.44 483.23,-835.44l0 0c11.16,-40.81 17.16,-85.22 17.16,-130.84z"/>
   <path class="fil5" d="M9988.81 6074.81c-128.55,0 -232.74,-104.44 -232.74,-232.87 0,-128.44 104.19,-232.87 232.74,-232.87 128.55,0 232.73,104.43 232.73,232.87 0,128.43 -104.18,232.87 -232.73,232.87zm475.79 -232.87c0,-261.67 -213.05,-475.34 -475.79,-475.34 -262.75,0 -475.8,213.67 -475.8,475.34 0,44.41 6,86.43 17.29,126.04l-0.36 0c0,0 213.05,787.41 458.87,792.22 245.81,4.8 459.23,-793.43 459.23,-793.43l0 0c10.56,-39.61 16.56,-81.62 16.56,-124.83z"/>
  </g>
 </g>
</svg>
