<?xml version="1.0" encoding="UTF-8"?>
<!DOCTYPE svg PUBLIC "-//W3C//DTD SVG 1.1//EN" "http://www.w3.org/Graphics/SVG/1.1/DTD/svg11.dtd">
<!-- Creator: CorelDRAW 2021 (64-Bit) -->
<svg xmlns="http://www.w3.org/2000/svg" xml:space="preserve" width="145mm" height="145mm" version="1.1" style="shape-rendering:geometricPrecision; text-rendering:geometricPrecision; image-rendering:optimizeQuality; fill-rule:evenodd; clip-rule:evenodd"
viewBox="0 0 14500 14500"
 xmlns:xlink="http://www.w3.org/1999/xlink"
 xmlns:xodm="http://www.corel.com/coreldraw/odm/2003">
 <defs>
  <style type="text/css">
   <![CDATA[
    .fil1 {fill:#FEFEFE;fill-rule:nonzero}
    .fil0 {fill:#36959D;fill-rule:nonzero}
   ]]>
  </style>
 </defs>
 <g id="Layer_x0020_1">
  <metadata id="CorelCorpID_0Corel-Layer"/>
  <g id="_2129275094528">
   <path class="fil0" d="M14494.07 7255.92c0,4004.69 -3245.96,7250 -7249.98,7250 -4004.09,0 -7250.02,-3245.31 -7250.02,-7250 0,-4003.68 3245.93,-7250 7250.02,-7250 4004.02,0 7249.98,3246.32 7249.98,7250z"/>
   <path class="fil1" d="M5736.73 5629.27c208.95,-248.79 373.94,-445.63 559.76,-666.45 299.45,200.83 593.4,404.67 892.74,599.5 1018.55,663.46 2106.53,1165.04 3305.22,1407.84 368.08,73.94 638.46,-62.95 701.81,-364.7 59.05,-280.76 -121.1,-519.57 -484.6,-595.5 -1401.92,-294.77 -2608.69,-988.19 -3779.91,-1820.5 179.55,-220.81 352.01,-432.64 560.14,-688.43 -923.23,-154.87 -1798.02,-301.75 -2721.42,-457.62 325.85,872.28 636.37,1703.59 966.26,2585.86z"/>
   <path class="fil1" d="M3282.15 8246.1c-0.07,689.43 -1.83,1379.86 0.52,2070.29 1.63,480.61 172.19,649.46 649.92,654.46 102.95,1 206.31,4.99 308.87,-2 328.79,-20.98 521.13,-198.84 522.77,-529.56 7.18,-1461.79 7.18,-2924.58 0,-4387.37 -1.64,-330.73 -193.98,-508.58 -522.84,-528.56 -123.11,-8 -247.14,-5 -370.63,-2 -399.24,10.99 -583.88,190.84 -587,592.5 -5.51,710.42 -1.57,1421.83 -1.61,2132.24z"/>
   <path class="fil1" d="M5264.11 8758.68c-0.08,535.56 -3.83,1070.11 1.13,1605.67 3.91,421.65 183.87,597.51 604.57,606.5 123.46,2 247.61,6 370.42,-3 311.25,-22.98 502.48,-199.83 504.98,-514.57 8.9,-1142.06 9.1,-2285.11 -0.19,-3427.16 -2.51,-312.75 -195.84,-488.6 -507.98,-510.58 -133.2,-9.99 -267.71,-7 -401.34,-3 -380.69,12.98 -564.99,193.84 -569.75,578.52 -6.87,555.54 -1.75,1111.08 -1.84,1667.62z"/>
   <path class="fil1" d="M8731.84 9223.3c0.2,-380.69 5.69,-761.37 -1.41,-1142.06 -6.99,-383.68 -189.44,-564.54 -570.01,-577.53 -133.59,-3.99 -267.98,-6.98 -401.07,2.01 -311.93,21.98 -503.87,198.83 -508.07,510.57 -10.88,812.33 -10.68,1625.66 -0.3,2437.99 4.1,313.74 194.14,491.59 505.17,513.57 143.29,10 288.16,7.99 431.84,1 346.11,-15.98 532.35,-195.84 541.25,-542.55 10.19,-400.67 2.3,-802.34 2.6,-1203z"/>
   <path class="fil1" d="M10712.97 9712.89c0.39,-226.81 7.99,-452.62 -1.41,-678.44 -14.38,-344.71 -197.73,-522.57 -544.43,-539.56 -133.39,-5.99 -267.58,-5.99 -400.77,1.01 -332.92,16.99 -524.96,190.84 -533.65,516.57 -12.89,482.6 -13.09,966.2 0.5,1448.8 8.79,310.75 198.03,486.6 510.97,506.58 153.57,10 308.84,10 462.21,-1 309.84,-21.98 488.49,-200.83 503.78,-514.57 11.99,-245.8 2.4,-492.6 2.8,-739.39z"/>
  </g>
 </g>
</svg>
