<?xml version="1.0" encoding="iso-8859-1"?>
<!DOCTYPE svg PUBLIC "-//W3C//DTD SVG 1.1//EN" "http://www.w3.org/Graphics/SVG/1.1/DTD/svg11.dtd">
<svg version="1.1" id="folder" xmlns="http://www.w3.org/2000/svg" xmlns:xlink="http://www.w3.org/1999/xlink" x="0px" y="0px"
	 width="450.583px" height="450.584px" viewBox="0 0 450.583 450.584" style="enable-background:new 0 0 450.583 450.584;"
	 xml:space="preserve">
	<g fill="#303b5a">
		<path d="M448.21,188.658c-1.897-2.242-4.688-3.535-7.629-3.535H9.999c-2.938,0-5.729,1.293-7.629,3.535
			c-1.898,2.242-2.717,5.207-2.234,8.106l29.547,177.704c1.838,11.158,11.379,19.256,22.688,19.256h345.842
			c11.31,0,20.851-8.098,22.687-19.24l29.549-177.72C450.929,193.864,450.111,190.899,448.21,188.658z"/>
		<path d="M413.984,104.678c0-7.661-6.211-13.874-13.875-13.874H194.212V70.735c0-7.664-6.211-13.875-13.873-13.875H50.472
			c-7.662,0-13.873,6.211-13.873,13.875v82.418h377.386L413.984,104.678L413.984,104.678z"/>
	</g>
</svg>
