<?xml version="1.0" encoding="UTF-8"?>
<!DOCTYPE svg PUBLIC "-//W3C//DTD SVG 1.1//EN" "http://www.w3.org/Graphics/SVG/1.1/DTD/svg11.dtd">
<!-- Creator: CorelDRAW 2021 (64-Bit) -->
<svg xmlns="http://www.w3.org/2000/svg" xml:space="preserve" width="145mm" height="145mm" version="1.1" style="shape-rendering:geometricPrecision; text-rendering:geometricPrecision; image-rendering:optimizeQuality; fill-rule:evenodd; clip-rule:evenodd"
viewBox="0 0 14500 14500"
 xmlns:xlink="http://www.w3.org/1999/xlink"
 xmlns:xodm="http://www.corel.com/coreldraw/odm/2003">
 <defs>
  <style type="text/css">
   <![CDATA[
    .fil3 {fill:#F9BD43;fill-rule:nonzero}
    .fil1 {fill:#CD3232;fill-rule:nonzero}
    .fil0 {fill:#B4E0F3;fill-rule:nonzero}
    .fil2 {fill:#274D6B;fill-rule:nonzero}
   ]]>
  </style>
 </defs>
 <g id="Layer_x0020_1">
  <metadata id="CorelCorpID_0Corel-Layer"/>
  <g id="_2129123972016">
   <path class="fil0" d="M14494.07 7256.53c0,4004.05 -3246.63,7249.88 -7250.6,7249.88 -4003.97,0 -7249.4,-3245.83 -7249.4,-7249.88 0,-4003.92 3245.43,-7250.12 7249.4,-7250.12 4003.97,0 7250.6,3246.2 7250.6,7250.12z"/>
   <path class="fil1" d="M6896.6 3154.68c-2180.82,45.49 -3935.55,1793.89 -3935.55,3945.58 0,2179.78 1801.54,3947.26 4023.17,3947.26 640.92,0 1245.84,-147.86 1783.54,-409.52l-1959.98 -3537.74 88.82 -3945.58z"/>
   <path class="fil2" d="M7502.72 2540.87l-135.63 4264.6 4101.19 1181.9c123.63,-427.65 182.43,-881.59 163.24,-1350.29 -87.63,-2253.35 -1908.38,-4028.16 -4128.8,-4096.21z"/>
   <polygon class="fil3" points="10248.85,11343.63 7200.26,7101.34 12164.41,8814.82 "/>
   <path class="fil3" d="M12164.41 8814.82l-4964.15 -1713.48 3048.59 4242.29c878.57,-627.13 1553.09,-1506.44 1915.56,-2528.81z"/>
  </g>
 </g>
</svg>
