<?xml version="1.0" encoding="UTF-8"?>
<!DOCTYPE svg PUBLIC "-//W3C//DTD SVG 1.1//EN" "http://www.w3.org/Graphics/SVG/1.1/DTD/svg11.dtd">
<!-- Creator: CorelDRAW 2021 (64-Bit) -->
<svg xmlns="http://www.w3.org/2000/svg" xml:space="preserve" width="145mm" height="145mm" version="1.1" style="shape-rendering:geometricPrecision; text-rendering:geometricPrecision; image-rendering:optimizeQuality; fill-rule:evenodd; clip-rule:evenodd"
viewBox="0 0 14500 14500"
 xmlns:xlink="http://www.w3.org/1999/xlink"
 xmlns:xodm="http://www.corel.com/coreldraw/odm/2003">
 <defs>
  <style type="text/css">
   <![CDATA[
    .fil1 {fill:#FEFEFE;fill-rule:nonzero}
    .fil0 {fill:#DC4942;fill-rule:nonzero}
    .fil2 {fill:#3A4F65;fill-rule:nonzero}
   ]]>
  </style>
 </defs>
 <g id="Layer_x0020_1">
  <metadata id="CorelCorpID_0Corel-Layer"/>
  <g id="_2128934328368">
   <path class="fil0" d="M14494.07 7256.17c0,4004.04 -3245.92,7249.76 -7250.06,7249.76 -4004.14,0 -7249.94,-3245.72 -7249.94,-7249.76 0,-4004.03 3245.8,-7250.24 7249.94,-7250.24 4004.14,0 7250.06,3246.21 7250.06,7250.24z"/>
   <polygon class="fil1" points="4654.53,9686.08 9827.13,9686.08 9827.13,7052.66 4654.53,7052.66 "/>
   <path class="fil2" d="M5249.75 9382.42c34.91,166.95 186.64,303.66 337.39,303.66 150.63,0 253.5,-138.02 228.54,-306.78l-257.82 -1737.48c-24.97,-168.76 -185.21,-307.03 -355.65,-307.03l-69.38 0c-170.43,0 -281.7,136.59 -246.9,303.9l363.82 1743.73zm1158.98 -5.52c14.4,170.08 149.68,309.18 300.43,309.18 150.64,0 270.43,-139.47 266.23,-310.26l-43.33 -1730.89c-4.33,-170.43 -147.28,-310.14 -318.08,-310.14l-69.02 0c-170.8,0 -298.27,139.11 -283.74,309.06l147.51 1733.05zm1159.95 -0.72c-6.24,170.43 111.63,309.9 262.38,309.9 150.76,0 287.71,-138.74 304.28,-308.82l170.43 -1733.65c16.93,-169.71 -109.09,-308.82 -279.54,-308.82l-69.5 0c-170.32,0 -315.42,139.71 -321.79,310.14l-66.26 1731.25zm1159.72 3.47c-27.13,168.77 73.94,306.43 224.69,306.43 150.76,0 304.27,-136.35 340.88,-302.94l386.97 -1745.53c37.09,-166.59 -72.49,-302.82 -242.93,-302.82l-69.02 0c-170.8,0 -332.48,138.03 -359.96,306.31l-280.63 1738.55zm1866.79 -3164.81c170.45,0 272.59,134.18 226.5,298.62l-1028.64 3680.69c-48.73,173.67 -212.45,294.78 -400.18,294.78l-4365.3 0c-187.73,0 -351.44,-121.11 -400.06,-294.78l-1028.76 -3680.69c-46.09,-164.44 56.05,-298.62 226.49,-298.62l6769.95 0z"/>
   <path class="fil2" d="M4535.21 6516.34l0 0c-40.8,-50.77 -38.05,-129.99 6.36,-176.8l2568.6 -2698.52c44.42,-46.58 114.51,-43.33 155.32,7.08 40.81,50.29 38.42,129.87 -6,176.31l-2568.96 2698.65c-44.41,46.81 -114.51,43.57 -155.32,-6.72z"/>
   <path class="fil2" d="M10034.9 6490.66l0 0c49.34,-39.85 60.98,-118.35 26.05,-174.4l-2136.86 -3417.23c-34.93,-56.07 -103.95,-69.38 -153.16,-29.65 -48.97,39.85 -60.61,118.34 -25.81,174.39l2136.63 3417.24c35.17,56.05 104.19,69.37 153.15,29.65z"/>
  </g>
 </g>
</svg>
