<?xml version="1.0" encoding="UTF-8"?>
<!DOCTYPE svg PUBLIC "-//W3C//DTD SVG 1.1//EN" "http://www.w3.org/Graphics/SVG/1.1/DTD/svg11.dtd">
<!-- Creator: CorelDRAW 2021 (64-Bit) -->
<svg xmlns="http://www.w3.org/2000/svg" xml:space="preserve" width="145mm" height="145mm" version="1.1" style="shape-rendering:geometricPrecision; text-rendering:geometricPrecision; image-rendering:optimizeQuality; fill-rule:evenodd; clip-rule:evenodd"
viewBox="0 0 14500 14500"
 xmlns:xlink="http://www.w3.org/1999/xlink"
 xmlns:xodm="http://www.corel.com/coreldraw/odm/2003">
 <defs>
  <style type="text/css">
   <![CDATA[
    .fil0 {fill:#FAC102;fill-rule:nonzero}
    .fil2 {fill:#F7F7F7;fill-rule:nonzero}
    .fil3 {fill:#E4E4DB;fill-rule:nonzero}
    .fil5 {fill:#1FA3A9;fill-rule:nonzero}
    .fil4 {fill:#3E4E64;fill-rule:nonzero}
    .fil1 {fill:#303D4C;fill-rule:nonzero}
   ]]>
  </style>
 </defs>
 <g id="Layer_x0020_1">
  <metadata id="CorelCorpID_0Corel-Layer"/>
  <g id="_2129119867584">
   <path class="fil0" d="M14494.07 7256.06c0,4004.04 -3245.89,7249.87 -7250,7249.87 -4003.99,0 -7250,-3245.83 -7250,-7249.87 0,-4003.92 3246.01,-7250.13 7250,-7250.13 4004.11,0 7250,3246.21 7250,7250.13z"/>
   <path class="fil1" d="M6925.64 6937.39l-384.09 -0.35 -99.98 0 -2089.32 -1.45c-33.84,0 -67.45,-1.68 -100.45,-5.28 -33.85,-3.48 -67.11,-8.76 -99.63,-15.72 -433.54,-92.3 -758.82,-477.59 -758.58,-938.96l0.37 -222.88c0.24,-458.86 322.63,-842.34 752.93,-936.68 32.52,-7.08 65.54,-12.72 99.26,-16.21 35.28,-3.96 71.3,-5.99 107.67,-5.99l2082.71 1.43 99.85 0 390.46 0.36c529.92,0.24 959.25,430.29 958.77,959.96l-0.12 222.89c-0.36,529.92 -430.05,959.24 -959.85,958.88z"/>
   <path class="fil2" d="M10995.03 3059.14c-1664.42,1228.33 -5679.44,1732.2 -5679.44,1732.2l-0.72 1042.78 -3.12 1041.33c0,0 4013.1,518.4 5672.96,1753.34l8.52 -2784.83 -3.72 0 3.72 0 1.8 -2784.82z"/>
   <path class="fil3" d="M5278.5 5814.44l0 6.23 -3.12 1041.35c0,0 4012.99,518.38 5672.96,1753.44l8.41 -2773.29 -5678.25 -27.73z"/>
   <path class="fil4" d="M10993.23 5843.96l1.8 -2784.82c-312.06,230.32 -706.96,435.21 -1142.41,615.85 693.88,1120.91 798.3,2715.56 149.79,4210.48 -23.4,53.77 -47.65,106.58 -72.5,159.51 401.02,173.2 764.1,367.64 1054.8,583.81l8.52 -2784.83z"/>
   <path class="fil1" d="M5730.17 5995.43l-143.08 2611.16 -0.12 2.51 -71.53 1306.11 -0.12 1.44 -51.73 944.85c-19.93,404.24 -198.89,485.62 -286.99,485.62l-564.37 24.6c-175.84,0.36 -435.09,-9.48 -386.13,-589.56l76.23 -864.79 0.12 -1.08 37.08 -421.52 78.13 -884.95 0.12 -2.52 208.86 -2367.14c-10.8,-102.5 64.21,-203.92 167.43,-226.85l729.77 -161.91c103.22,-22.92 195.65,41.54 206.33,144.03z"/>
   <path class="fil4" d="M11231.37 6694.1l624.74 -0.36c26.64,0 48.37,-21.84 48.37,-48.61l-189.76 -839.58 188.56 -840.17c-0.12,-26.77 -21.97,-48.61 -48.61,-48.61l-624.62 0.6c-26.76,0 -48.5,21.97 -48.5,48.73l1.33 1679.75c0,26.76 21.84,48.25 48.49,48.25z"/>
   <path class="fil4" d="M6535.9 7237.09c-28.44,-7.79 -61.69,-15.84 -99.49,-22.92 -523.68,-102.38 -1891.99,-143.31 -2146.09,-150.03 -12.36,-0.36 -22.08,-0.6 -29.17,-1.08l-3.35 0c-5.4,-0.24 -8.17,-0.24 -8.17,-0.24l2.17 -132.51 18.35 -1079.27 -24 -1051.18 -3.72 -167.31c0,0 1608.73,-47.53 2186.17,-164.08 37.7,-7.79 70.94,-15.48 99.03,-23.64l8.75 350.47 25.34 1020.45 1.2 0.36 -0.36 28.93 0.48 20.76 -0.96 0 -20.53 1071.24 -5.65 300.05z"/>
   <path class="fil4" d="M11394.61 8584.37c0,118.35 -96.02,214.13 -214.37,214.13 -118.23,0 -214.01,-96.13 -214.01,-214.13l3.6 -5491.75c0,-118.34 96.02,-214.12 214.37,-213.76 118.22,0 214.12,95.78 214,214.12l-3.59 5491.39z"/>
   <path class="fil1" d="M6282.17 5159.34l-1717.94 1.08c-25.94,0 -47.18,-21.13 -47.18,-46.81l-0.12 -152.43c0,-25.81 21.24,-47.3 47.17,-47.3l1717.95 -0.96c25.92,0 47.17,21.01 47.17,47.18l0.12 152.07c0,25.69 -21.13,47.17 -47.17,47.17z"/>
   <path class="fil1" d="M6282.53 5555.19l-1717.94 1.43c-25.94,0 -47.18,-21.12 -47.3,-47.16l0 -152.2c-0.12,-26.05 21.12,-47.17 47.06,-47.17l1717.94 -1.44c26.04,0 47.29,21.13 47.29,47.29l0.13 152.07c0,26.04 -21.26,47.18 -47.18,47.18z"/>
   <path class="fil1" d="M6282.77 5951.38l-1717.94 1.44c-25.94,0 -47.18,-21.48 -47.18,-47.29l-0.12 -152.07c0,-26.04 21.24,-47.16 47.18,-47.16l1717.94 -1.45c25.92,0 47.18,21.12 47.18,47.18l0.12 152.19c0,25.68 -21.14,47.16 -47.18,47.16z"/>
   <path class="fil1" d="M6283.13 6347.23l-1717.94 1.32c-26.05,0 -47.18,-21 -47.18,-47.17l-0.24 -152.08c0,-26.04 21.25,-47.16 47.18,-47.16l1718.06 -1.44c25.92,0 47.18,21.48 47.18,47.16l0.12 152.19c0,26.05 -21.26,47.18 -47.18,47.18z"/>
   <path class="fil1" d="M6283.49 6743.31l-1717.95 1.44c-26.04,0 -47.29,-21.49 -47.29,-47.17l-0.12 -152.07c0,-26.16 21.25,-47.29 47.18,-47.29l1717.94 -1.44c25.92,0 47.17,21.25 47.17,47.29l0.12 152.07c0,26.17 -21.13,47.17 -47.05,47.17z"/>
   <polygon class="fil5" points="5626.46,7887.51 5577.61,8780.98 4402.54,8781.57 4481.16,7888.59 "/>
  </g>
 </g>
</svg>
